<svg width="20" height="20" viewBox="0 0 20 20" fill="none" xmlns="http://www.w3.org/2000/svg">
<path d="M7.60039 1.60002H1.60039L1.60039 18.4H7.60039V1.60002ZM18.4004 1.60002H12.4004V7.60002H18.4004V1.60002ZM18.4004 12.4V18.4H12.4004V12.4H18.4004ZM0.400391 1.60002C0.400391 0.937283 0.937649 0.400024 1.60039 0.400024H7.60039C8.26313 0.400024 8.80039 0.937283 8.80039 1.60002V18.4C8.80039 19.0628 8.26313 19.6 7.60039 19.6H1.60039C0.937649 19.6 0.400391 19.0628 0.400391 18.4V1.60002ZM11.2004 1.60002C11.2004 0.937283 11.7376 0.400024 12.4004 0.400024H18.4004C19.0631 0.400024 19.6004 0.937283 19.6004 1.60002V7.60002C19.6004 8.26276 19.0631 8.80002 18.4004 8.80002H12.4004C11.7376 8.80002 11.2004 8.26276 11.2004 7.60002V1.60002ZM12.4004 11.2C11.7376 11.2 11.2004 11.7373 11.2004 12.4V18.4C11.2004 19.0628 11.7376 19.6 12.4004 19.6H18.4004C19.0631 19.6 19.6004 19.0628 19.6004 18.4V12.4C19.6004 11.7373 19.0631 11.2 18.4004 11.2H12.4004Z" fill="#343A40"/>
</svg>
