<svg width="13" height="12" viewBox="0 0 13 12" fill="none" xmlns="http://www.w3.org/2000/svg">
<path d="M1.39286 12C0.623604 12 0 11.3801 0 10.6154V1.38462C0 0.619913 0.623603 0 1.39286 0H8.82143C9.07785 0 9.28571 0.206638 9.28571 0.461538C9.28571 0.716439 9.07785 0.923077 8.82143 0.923077H1.39286C1.13644 0.923077 0.928571 1.12971 0.928571 1.38462V10.6154C0.928571 10.8703 1.13644 11.0769 1.39286 11.0769H10.6786C10.935 11.0769 11.1429 10.8703 11.1429 10.6154V6C11.1429 5.7451 11.3507 5.53846 11.6071 5.53846C11.8636 5.53846 12.0714 5.7451 12.0714 6V10.6154C12.0714 11.3801 11.4478 12 10.6786 12H1.39286Z" fill="#919191"/>
<path d="M6.36401 8.17251L12.864 1.71097C13.0453 1.53073 13.0453 1.2385 12.864 1.05826C12.6827 0.878016 12.3887 0.878016 12.2074 1.05826L6.03571 7.19344L3.5783 4.75057C3.39698 4.57032 3.10302 4.57032 2.9217 4.75057C2.74039 4.93081 2.74039 5.22304 2.9217 5.40328L5.70741 8.17251C5.88873 8.35275 6.1827 8.35275 6.36401 8.17251Z" fill="#919191"/>
</svg>
