<svg width="17" height="17" viewBox="0 0 17 17" fill="none" xmlns="http://www.w3.org/2000/svg">
<path fill-rule="evenodd" clip-rule="evenodd" d="M11.7219 1.35409C12.5274 0.548636 13.8333 0.548636 14.6387 1.35409L15.8784 2.59376C16.6838 3.39922 16.6838 4.70512 15.8784 5.51058L6.38721 15.0017L2.10914 16.4278C1.30295 16.6965 0.535975 15.9295 0.804703 15.1233L2.23072 10.8453L11.7219 1.35409ZM13.6664 2.32636C13.398 2.05788 12.9627 2.05788 12.6942 2.32636L11.7644 3.25611L13.9764 5.46805L14.9061 4.5383C15.1746 4.26982 15.1746 3.83452 14.9061 3.56603L13.6664 2.32636ZM13.0041 6.44032L10.7921 4.22839L3.80389 11.2166L6.01583 13.4286L13.0041 6.44032ZM4.74311 14.1004L3.13207 12.4894L2.32655 14.9059L4.74311 14.1004Z" fill="#919191"/>
</svg>
