<svg width="16" height="16" viewBox="0 0 16 16" fill="none" xmlns="http://www.w3.org/2000/svg">
<path d="M6.94143 0.5C3.29916 0.5 0.335754 3.46341 0.335754 7.10568C0.335754 10.7482 3.29916 13.7114 6.94143 13.7114C10.5839 13.7114 13.5471 10.7482 13.5471 7.10568C13.5471 3.46341 10.5839 0.5 6.94143 0.5ZM6.94143 12.4919C3.97152 12.4919 1.55526 10.0756 1.55526 7.10571C1.55526 4.1358 3.97152 1.71951 6.94143 1.71951C9.91133 1.71951 12.3276 4.13577 12.3276 7.10568C12.3276 10.0756 9.91133 12.4919 6.94143 12.4919Z" fill="#B2B2B2"/>
<path d="M15.1571 14.4591L11.6611 10.9632C11.4229 10.725 11.0372 10.725 10.7989 10.9632C10.5607 11.2012 10.5607 11.5874 10.7989 11.8254L14.2949 15.3213C14.414 15.4404 14.5699 15.5 14.726 15.5C14.8819 15.5 15.038 15.4404 15.1571 15.3213C15.3953 15.0833 15.3953 14.6971 15.1571 14.4591Z" fill="#B2B2B2"/>
</svg>
