<svg width="8" height="8" viewBox="0 0 8 8" fill="none" xmlns="http://www.w3.org/2000/svg">
<path d="M4 0.5C4.24162 0.5 4.4375 0.695875 4.4375 0.9375V3.5625H7.0625C7.30412 3.5625 7.5 3.75838 7.5 4C7.5 4.24162 7.30412 4.4375 7.0625 4.4375H4.4375V7.0625C4.4375 7.30412 4.24162 7.5 4 7.5C3.75838 7.5 3.5625 7.30412 3.5625 7.0625V4.4375H0.9375C0.695875 4.4375 0.5 4.24162 0.5 4C0.5 3.75838 0.695875 3.5625 0.9375 3.5625H3.5625V0.9375C3.5625 0.695875 3.75838 0.5 4 0.5Z" fill="#919191" stroke="#919191" stroke-width="0.6" stroke-linecap="round"/>
</svg>
