<svg width="14" height="14" viewBox="0 0 14 14" fill="none" xmlns="http://www.w3.org/2000/svg">
<path d="M1.21423 3.14284H12.7857M4.42852 3.14284V1.85713C4.42852 1.51613 4.56398 1.18911 4.8051 0.947988C5.04622 0.70687 5.37324 0.571411 5.71423 0.571411H8.28566C8.62666 0.571411 8.95368 0.70687 9.1948 0.947988C9.43592 1.18911 9.57138 1.51613 9.57138 1.85713V3.14284M11.5 3.14284V12.1428C11.5 12.4838 11.3645 12.8109 11.1234 13.052C10.8823 13.2931 10.5552 13.4286 10.2142 13.4286H3.78566C3.44467 13.4286 3.11764 13.2931 2.87653 13.052C2.63541 12.8109 2.49995 12.4838 2.49995 12.1428V3.14284H11.5Z" stroke="#B2B2B2" stroke-linecap="round" stroke-linejoin="round"/>
</svg>
