<svg width="20" height="18" viewBox="0 0 20 18" fill="none" xmlns="http://www.w3.org/2000/svg">
<path d="M10.2941 0.948529C10.1103 0.85049 9.88971 0.85049 9.70588 0.948529L0.330882 5.94853C0.127218 6.05715 0 6.26918 0 6.5C0 6.73082 0.127218 6.94285 0.330882 7.05147L3.98438 9L0.330882 10.9485C0.127218 11.0572 0 11.2692 0 11.5C0 11.7308 0.127218 11.9428 0.330882 12.0515L9.70588 17.0515C9.88971 17.1495 10.1103 17.1495 10.2941 17.0515L19.6691 12.0515C19.8728 11.9428 20 11.7308 20 11.5C20 11.2692 19.8728 11.0572 19.6691 10.9485L16.0156 9L19.6691 7.05147C19.8728 6.94285 20 6.73082 20 6.5C20 6.26918 19.8728 6.05715 19.6691 5.94853L10.2941 0.948529ZM10 10.7917L1.95312 6.5L10 2.20833L18.0469 6.5L10 10.7917Z" fill="#919191"/>
</svg>
