<svg width="14" height="12" viewBox="0 0 14 12" fill="none" xmlns="http://www.w3.org/2000/svg">
<path fill-rule="evenodd" clip-rule="evenodd" d="M0.25 11.0625C0.25 10.7518 0.50184 10.5 0.8125 10.5H8.6875C8.99816 10.5 9.25 10.7518 9.25 11.0625C9.25 11.3732 8.99816 11.625 8.6875 11.625H0.8125C0.50184 11.625 0.25 11.3732 0.25 11.0625Z" fill="#919191"/>
<path fill-rule="evenodd" clip-rule="evenodd" d="M0.25 7.6875C0.25 7.37684 0.50184 7.125 0.8125 7.125H13.1875C13.4982 7.125 13.75 7.37684 13.75 7.6875C13.75 7.99816 13.4982 8.25 13.1875 8.25H0.8125C0.50184 8.25 0.25 7.99816 0.25 7.6875Z" fill="#919191"/>
<path fill-rule="evenodd" clip-rule="evenodd" d="M0.25 4.3125C0.25 4.00184 0.50184 3.75 0.8125 3.75H13.1875C13.4982 3.75 13.75 4.00184 13.75 4.3125C13.75 4.62316 13.4982 4.875 13.1875 4.875H0.8125C0.50184 4.875 0.25 4.62316 0.25 4.3125Z" fill="#919191"/>
<path fill-rule="evenodd" clip-rule="evenodd" d="M0.25 0.9375C0.25 0.62684 0.50184 0.375 0.8125 0.375H13.1875C13.4982 0.375 13.75 0.62684 13.75 0.9375C13.75 1.24816 13.4982 1.5 13.1875 1.5H0.8125C0.50184 1.5 0.25 1.24816 0.25 0.9375Z" fill="#919191"/>
</svg>
