<svg width="22" height="22" viewBox="0 0 22 22" fill="none" xmlns="http://www.w3.org/2000/svg">
<g clip-path="url(#clip0_727_2221)">
<path d="M2.75 3.75C2.75 3.19772 3.19772 2.75 3.75 2.75H9.08333C9.63562 2.75 10.0833 3.19772 10.0833 3.75V9.08333C10.0833 9.63562 9.63562 10.0833 9.08333 10.0833H3.75C3.19772 10.0833 2.75 9.63562 2.75 9.08333V3.75ZM2.75 12.9167C2.75 12.3644 3.19772 11.9167 3.75 11.9167H9.08333C9.63562 11.9167 10.0833 12.3644 10.0833 12.9167V18.25C10.0833 18.8023 9.63562 19.25 9.08333 19.25H3.75C3.19772 19.25 2.75 18.8023 2.75 18.25V12.9167ZM11.9167 3.75C11.9167 3.19772 12.3644 2.75 12.9167 2.75H18.25C18.8023 2.75 19.25 3.19772 19.25 3.75V9.08333C19.25 9.63562 18.8023 10.0833 18.25 10.0833H12.9167C12.3644 10.0833 11.9167 9.63562 11.9167 9.08333V3.75ZM11.9167 12.9167C11.9167 12.3644 12.3644 11.9167 12.9167 11.9167H18.25C18.8023 11.9167 19.25 12.3644 19.25 12.9167V18.25C19.25 18.8023 18.8023 19.25 18.25 19.25H12.9167C12.3644 19.25 11.9167 18.8023 11.9167 18.25V12.9167ZM13.75 4.58333V8.25H17.4167V4.58333H13.75ZM13.75 13.75V17.4167H17.4167V13.75H13.75ZM4.58333 4.58333V8.25H8.25V4.58333H4.58333ZM4.58333 13.75V17.4167H8.25V13.75H4.58333Z" fill="#0079BF"/>
</g>
<defs>
<clipPath id="clip0_727_2221">
<rect width="22" height="22" fill="white"/>
</clipPath>
</defs>
</svg>
