<svg width="20" height="22" viewBox="0 0 20 22" fill="none" xmlns="http://www.w3.org/2000/svg">
<path d="M9.99935 21.5C11.4721 21.5 12.666 20.3247 12.666 18.875H7.33268C7.33268 20.3247 8.52659 21.5 9.99935 21.5Z" fill="#919191"/>
<path d="M9.99935 3.0177L8.93642 3.22902C6.50005 3.71338 4.66604 5.83483 4.66604 8.375C4.66604 9.19902 4.48689 11.2589 4.05422 13.2866C3.83944 14.2932 3.55207 15.3413 3.17014 16.25H16.8286C16.4466 15.3413 16.1593 14.2932 15.9445 13.2866C15.5118 11.2589 15.3327 9.19901 15.3327 8.375C15.3327 5.83481 13.4987 3.71335 11.0623 3.22901L9.99935 3.0177ZM18.2918 16.25C18.5894 16.8372 18.9346 17.3013 19.3327 17.5625H0.666016C1.06405 17.3013 1.40928 16.8372 1.70695 16.25C2.90498 13.8867 3.33271 9.5289 3.33271 8.375C3.33271 5.19788 5.62628 2.54809 8.67247 1.94249C8.6682 1.89973 8.66602 1.85637 8.66602 1.8125C8.66602 1.08763 9.26297 0.5 9.99935 0.5C10.7357 0.5 11.3327 1.08763 11.3327 1.8125C11.3327 1.85636 11.3305 1.89972 11.3262 1.94248C14.3724 2.54805 16.666 5.19786 16.666 8.375C16.666 9.5289 17.0937 13.8867 18.2918 16.25Z" fill="#919191"/>
</svg>
