<svg width="14" height="18" viewBox="0 0 14 18" fill="none" xmlns="http://www.w3.org/2000/svg">
<path d="M8.02186 1.88322L8.01414 1.9758L8.1059 1.99031C9.63877 2.23271 10.6815 2.99332 11.3441 4.07774C12.0092 5.16613 12.2952 6.58784 12.2952 8.1538C12.2952 8.8589 12.3424 9.7398 12.4613 10.5717C12.5798 11.4004 12.7711 12.1928 13.0656 12.7124L13.5861 13.6308C13.685 13.8053 13.6635 13.9935 13.5597 14.1416C13.4552 14.2908 13.2656 14.3999 13.0297 14.3999H0.970295C0.734354 14.3999 0.54479 14.2908 0.440266 14.1416C0.336532 13.9935 0.314956 13.8053 0.413872 13.6308L0.934411 12.7124C1.34469 11.9885 1.54921 11.4386 1.64606 10.8898C1.74212 10.3454 1.73117 9.80673 1.71707 9.11315L1.71693 9.10635C1.71112 8.82032 1.70475 8.50702 1.70475 8.1538C1.70475 6.58784 1.99084 5.16613 2.65586 4.07774C3.31845 2.99332 4.36123 2.23271 5.8941 1.99031L5.98586 1.9758L5.97814 1.88322C5.97606 1.85832 5.975 1.83313 5.975 1.80769C5.975 1.28449 6.42801 0.85 7 0.85C7.57199 0.85 8.025 1.28449 8.025 1.80769C8.025 1.83313 8.02394 1.85832 8.02186 1.88322ZM7.01562 3.13405L7 3.13158L6.98438 3.13405L6.09715 3.27436C4.93578 3.45801 4.22658 4.00039 3.76518 4.75554C3.26984 5.56623 3.00475 6.72285 3.00475 8.1538C3.00475 8.49216 3.01083 8.79322 3.01666 9.07993L3.01666 9.07995L3.01811 9.15038L3.01811 9.15039C3.03139 9.795 3.04451 10.4457 2.92628 11.1157C2.81861 11.7258 2.61331 12.3068 2.2812 12.9543L2.20649 13.0999H2.37018H11.6478H11.8004L11.7395 12.96C11.4433 12.2793 11.2764 11.4689 11.1744 10.7557C11.0453 9.85226 10.9952 8.90875 10.9952 8.1538C10.9952 6.72285 10.7302 5.56623 10.2348 4.75554C9.77342 4.00039 9.06422 3.45801 7.90285 3.27436L7.01562 3.13405ZM8.58727 15.5148C8.58727 16.4208 7.87389 17.1505 6.99977 17.1505C6.12566 17.1505 5.41227 16.4208 5.41227 15.5148C5.41227 15.4194 5.42019 15.326 5.43537 15.2351H8.56417C8.57935 15.326 8.58727 15.4194 8.58727 15.5148Z" fill="black" stroke="#E3E3E3" stroke-width="0.2"/>
</svg>
