<svg width="14" height="14" viewBox="0 0 14 14" fill="none" xmlns="http://www.w3.org/2000/svg">
<path d="M6.99998 3.39998C6.99998 3.17906 6.82089 2.99998 6.59998 2.99998C6.37906 2.99998 6.19998 3.17906 6.19998 3.39998V7.79998C6.19998 7.94352 6.27689 8.07606 6.40152 8.14727L9.20152 9.74727C9.39333 9.85688 9.63767 9.79024 9.74727 9.59843C9.85688 9.40662 9.79024 9.16228 9.59843 9.05268L6.99998 7.56785V3.39998Z" fill="#B2B2B2"/>
<path d="M6.99998 13.4C10.5346 13.4 13.4 10.5346 13.4 6.99998C13.4 3.46535 10.5346 0.599976 6.99998 0.599976C3.46535 0.599976 0.599976 3.46535 0.599976 6.99998C0.599976 10.5346 3.46535 13.4 6.99998 13.4ZM12.6 6.99998C12.6 10.0928 10.0928 12.6 6.99998 12.6C3.90718 12.6 1.39998 10.0928 1.39998 6.99998C1.39998 3.90718 3.90718 1.39998 6.99998 1.39998C10.0928 1.39998 12.6 3.90718 12.6 6.99998Z" fill="#B2B2B2"/>
</svg>
